<svg xmlns="http://www.w3.org/2000/svg" viewBox="0 0 128 128" width="128" height="128">
  <ellipse cx="64" cy="110" rx="32" ry="7" fill="rgba(0,0,0,0.22)"/>
  <ellipse cx="64" cy="78" rx="36" ry="28" fill="#7ac15f"/>
  <ellipse cx="64" cy="70" rx="42" ry="32" fill="#5ba445" stroke="#1a1208" stroke-width="4"/>
  <g stroke-linecap="round">
    <g stroke="#3a6a2a" stroke-width="6">
      <line x1="34" y1="74" x2="10" y2="42"/>
      <line x1="94" y1="74" x2="118" y2="42"/>
    </g>
    <g stroke="#1a1208" stroke-width="4">
      <line x1="10" y1="42" x2="20" y2="28"/>
      <line x1="118" y1="42" x2="108" y2="28"/>
    </g>
  </g>
  <circle cx="64" cy="30" r="22" fill="#5ba445" stroke="#1a1208" stroke-width="4"/>
  <g fill="#1a1208">
    <circle cx="56" cy="28" r="4"/>
    <circle cx="72" cy="28" r="4"/>
  </g>
  <g fill="#fff">
    <circle cx="55" cy="27" r="1.5"/>
    <circle cx="71" cy="27" r="1.5"/>
  </g>
  <g stroke="#1a1208" stroke-width="4" stroke-linecap="round">
    <line x1="26" y1="74" x2="10" y2="84"/>
    <line x1="102" y1="74" x2="118" y2="84"/>
    <line x1="26" y1="88" x2="10" y2="98"/>
    <line x1="102" y1="88" x2="118" y2="98"/>
  </g>
</svg>
